<?xml version="1.0" encoding="utf-8"?>
<!-- Generator: Adobe Illustrator 27.8.1, SVG Export Plug-In . SVG Version: 6.00 Build 0)  -->
<svg version="1.1" xmlns="http://www.w3.org/2000/svg" xmlns:xlink="http://www.w3.org/1999/xlink" x="0px" y="0px"
	 viewBox="0 0 15 15" style="enable-background:new 0 0 15 15;" xml:space="preserve">
<style type="text/css">
	.st0{fill:#F4A634;}
	.st1{fill:#450F1F;}
</style>
<g id="Layer_1">
	<path class="st0" d="M3,10.2H1.4c0,1.8,1.5,3.3,3.2,3.3H10c1.8,0,3.2-1.5,3.2-3.3H3z M2.5,5.9H1.4V3.7c0-1.2,1-2.2,2.2-2.2h7.6
		c1.2,0,2.2,1,2.2,2.2v2.2C13.3,5.9,2.5,5.9,2.5,5.9z M11.1,4.2c0,0.3,0.2,0.5,0.5,0.5s0.5-0.2,0.5-0.5s-0.2-0.5-0.5-0.5
		S11.1,3.9,11.1,4.2z M8.9,3.2c0,0.3,0.2,0.5,0.5,0.5S10,3.5,10,3.2S9.8,2.6,9.5,2.6S8.9,2.8,8.9,3.2z M6.8,4.2
		c0,0.3,0.2,0.5,0.5,0.5s0.5-0.2,0.5-0.5S7.6,3.7,7.3,3.7S6.8,3.9,6.8,4.2z M4.6,3.2c0,0.3,0.2,0.5,0.5,0.5s0.5-0.2,0.5-0.5
		S5.5,2.6,5.2,2.6S4.6,2.8,4.6,3.2z M2.5,4.2c0,0.3,0.2,0.5,0.5,0.5s0.5-0.2,0.5-0.5S3.3,3.7,3,3.7S2.5,3.9,2.5,4.2z"/>
</g>
<g id="Patty">
	<g>
		<path class="st1" d="M14.5,8c0,0.6-0.5,1.1-1.1,1.1H1.6C1,9.1,0.5,8.6,0.5,8S1,6.9,1.6,6.9h11.9C14,6.9,14.5,7.4,14.5,8z"/>
	</g>
</g>
</svg>
