<svg width="207" height="83" viewBox="0 0 207 83" fill="none" xmlns="http://www.w3.org/2000/svg">
<mask id="mask0_8_2" style="mask-type:luminance" maskUnits="userSpaceOnUse" x="54" y="2" width="153" height="81">
<path d="M54.4978 2.85487H206.873V82.9285H54.4978V2.85487Z" fill="white"/>
</mask>
<g mask="url(#mask0_8_2)">
<path fill-rule="evenodd" clip-rule="evenodd" d="M79.181 29.744C79.1972 29.7241 79.2188 29.7141 79.2296 29.6891L81.0512 27.9022C81.1482 29.185 81.256 30.4378 81.3638 31.6657C80.7979 32.2248 79.8439 32.2448 79.2296 31.7107C78.6259 31.1866 78.6044 30.3031 79.181 29.744ZM177.187 35.3045C176.045 34.6606 174.897 33.9419 173.717 33.1632C174.848 32.6391 176.007 32.1998 177.187 31.8355C181.181 30.6075 185.342 30.328 189.416 30.9869C190.51 31.1616 191.583 31.4212 192.671 31.7356C193.959 32.115 195.237 32.5942 196.503 33.1632C191.416 26.5944 184.398 23.0005 177.187 22.9356C174.39 22.9007 171.582 23.4048 168.834 24.463C168.182 24.7675 167.519 25.067 166.856 25.3216C165.158 26.0154 163.434 26.5545 161.698 26.9438C158.298 27.7025 154.811 27.9121 151.378 27.5777C147.869 27.2433 144.398 26.3298 141.046 24.8424C140.141 24.443 139.246 23.9938 138.357 23.5146C139.246 23.7293 140.151 23.894 141.046 24.0038C144.517 24.488 147.998 24.2833 151.378 23.4497C153.064 23.0255 154.719 22.4514 156.347 21.7177C156.406 21.6927 156.465 21.6628 156.535 21.6278C158.686 20.6345 160.744 19.3717 162.712 17.8443C160.674 17.8742 158.621 17.7195 156.535 17.43C155.813 17.3401 155.091 17.2154 154.369 17.0806C142.393 14.9392 129.303 8.66493 114.352 5.25573C110.93 4.47706 107.395 3.83815 103.768 3.44881H103.751C103.056 3.41387 102.366 3.39391 101.655 3.39391C100.291 3.39391 98.944 3.4588 97.6074 3.58358C98.6153 5.3905 99.1973 7.447 99.1973 9.62329C99.1973 16.861 92.854 22.721 85.0555 22.721C83.5465 22.721 82.1021 22.5113 80.7494 22.107C80.7601 22.5563 80.7871 22.9905 80.7979 23.4248L76.9391 27.403C76.9283 27.423 76.9013 27.433 76.8906 27.4429C76.3354 28.0269 75.3869 28.0719 74.7563 27.5577C74.142 27.0336 74.0827 26.1501 74.6486 25.5811C74.6593 25.5562 74.6755 25.5462 74.6971 25.5362L78.7499 21.3583C77.2301 20.6545 75.8558 19.7061 74.7078 18.5681L66.8986 26.6293C65.1362 28.4263 64.6189 30.8521 65.6914 32.5692C66.1602 33.3429 66.6453 34.1016 67.1627 34.8503C67.8956 36.1231 68.3914 37.2962 68.44 38.4991H56.2868V44.0496L55.5054 43.3259V57.337L58.7821 60.4966C59.0624 60.0274 59.2295 59.5383 59.2995 59.0241L60.9433 57.5067L62.5924 59.0241C62.711 59.8927 63.126 60.7312 63.8482 61.3901L75.5648 72.2566L78.3241 74.8122L83.2554 79.3695V81.7355H93.9157V81.7255H114.988C115.075 81.7255 115.145 81.7155 115.231 81.7005C118.594 81.4659 122.043 80.8669 125.562 79.8836C126.36 79.659 127.179 79.4244 127.988 79.1548C130.725 78.5559 133.35 78.1715 135.883 78.0168C137.656 77.907 139.381 77.907 141.046 78.0068C142.83 78.1166 144.555 78.3662 146.204 78.7206C149.896 79.5142 153.296 80.9218 156.417 82.9284C153.474 77.3829 148.349 73.4046 141.046 71.0187C137.764 69.9455 134.029 69.1968 129.858 68.7626C129.809 68.7626 129.761 68.7626 129.701 68.7476C129.782 68.7276 129.858 68.7027 129.939 68.6927C131.086 68.4131 132.207 68.2135 133.339 68.0687C135.942 67.7343 138.513 67.7093 141.046 67.8541C141.973 67.914 142.9 67.9789 143.816 68.0687C146.36 68.3133 148.882 68.6827 151.378 69.0071C153.102 69.2318 154.827 69.4414 156.535 69.5861C165.482 70.3449 174.272 69.3066 183.304 59.4584C170.235 60.7762 162.372 55.006 151.378 53.4536C148.074 52.9844 144.495 52.9046 140.405 53.5085C139.537 53.6283 138.648 53.798 137.732 53.9877C138.804 52.8696 139.936 51.9761 141.143 51.2723C142.501 50.4687 143.962 49.8997 145.482 49.5303C145.724 49.4654 145.961 49.4205 146.204 49.3656C147.858 49.0312 149.594 48.8964 151.378 48.9064C153.641 48.9313 156.018 49.1759 158.465 49.5303C162.809 50.1592 167.373 51.1426 172.019 51.7765C180.761 52.9844 189.739 52.9844 197.829 47.2192C198.804 46.5304 199.758 45.7567 200.701 44.8982C202.846 42.9316 204.905 40.5107 206.872 37.5158C195.711 41.8284 187.099 40.9998 177.187 35.3045Z" fill="#FFA01C"/>
</g>
<path d="M21.0834 78.7908C20.4313 79.3897 19.3804 79.3897 18.7337 78.7908C18.0815 78.1968 18.0815 77.2234 18.7337 76.6244C19.3804 76.0205 20.4313 76.0205 21.0834 76.6244C21.7194 77.2234 21.7194 78.1968 21.0834 78.7908ZM95.425 4.11796C94.2662 3.55891 92.962 3.2145 91.5769 3.05976C91.4422 3.04479 91.3236 3.03481 91.1889 3.02482C91.0488 3.01484 90.914 3.00486 90.7793 2.98988C90.6392 2.98988 90.5044 2.9799 90.3697 2.9799H90.3589C90.2242 2.96992 90.0841 2.96992 89.9385 2.96992C89.793 2.96992 89.6583 2.96992 89.5128 2.96992H89.502C89.3727 2.9799 89.2271 2.9799 89.0924 2.98988H89.0816C88.9361 2.98988 88.7906 3.00486 88.6613 3.01484H88.6451C88.505 3.02482 88.3595 3.03481 88.2139 3.04479H88.2032C88.0576 3.05976 87.9121 3.07973 87.7666 3.08971H87.7558C87.6103 3.11467 87.4648 3.12465 87.3193 3.14961C87.163 3.16958 87.0175 3.19453 86.8612 3.2145C86.5756 3.25942 86.2576 3.31433 85.9612 3.38421C85.7995 3.41416 85.6432 3.43912 85.5031 3.46907L85.4869 3.48404C85.3414 3.51399 85.2013 3.54893 85.045 3.58387H85.0288C84.9318 3.60384 84.8348 3.63878 84.727 3.66374C80.0274 4.86669 74.9775 7.62698 70.5636 11.71C65.1257 16.7464 61.8705 22.7013 61.2453 27.8276C61.2453 27.8575 61.2292 27.9024 61.2292 27.9374H61.2184C61.1806 28.3068 61.1591 28.6612 61.1321 29.0205C61.1321 29.2302 61.1321 29.4448 61.1321 29.6545C61.1321 32.4796 60.9651 33.6976 58.9279 36.1434L17.0899 73.4499C15.0527 75.3466 15.0527 78.4214 17.0899 80.3182C19.1432 82.2049 22.4577 82.2049 24.5057 80.3182L64.7862 41.5692C67.427 39.6824 68.7312 39.5177 71.7924 39.5276C72.0188 39.5276 72.2505 39.5276 72.4769 39.5177C72.8649 39.5077 73.2529 39.4827 73.6464 39.4378C73.6841 39.4378 73.7218 39.4278 73.7703 39.4278C79.3052 38.8488 85.7294 35.8339 91.1673 30.7975C95.5813 26.7095 98.5562 22.0275 99.8605 17.6649C99.882 17.575 99.909 17.4852 99.9305 17.3953L99.9467 17.3854C99.979 17.2406 100.017 17.1058 100.054 16.9611H100.065C100.103 16.8163 100.125 16.6816 100.162 16.5368C100.232 16.2473 100.292 15.9678 100.34 15.6883C100.367 15.5535 100.389 15.4187 100.416 15.274C100.437 15.1392 100.448 14.9944 100.475 14.8597C100.486 14.7249 100.496 14.5951 100.523 14.4603V14.4504C100.534 14.3156 100.545 14.1808 100.561 14.046V14.0361C100.572 13.9113 100.572 13.7765 100.583 13.6417V13.6318C100.593 13.512 100.593 13.3772 100.61 13.2424C100.61 13.1076 100.61 12.9829 100.61 12.8531V12.8381C100.61 12.7183 100.61 12.5835 100.593 12.4588V12.4488C100.593 12.324 100.583 12.2042 100.572 12.0694C100.572 11.9446 100.561 11.8148 100.545 11.6901C100.534 11.5653 100.523 11.4555 100.513 11.3307C100.34 10.0379 99.9682 8.84491 99.3646 7.77174M99.3646 7.77174C99.3269 7.70186 99.2946 7.63697 99.2568 7.56709C99.1976 7.46725 99.1383 7.36743 99.0736 7.2676C99.0035 7.16777 98.9443 7.06794 98.8688 6.97809C98.7987 6.87826 98.7395 6.77843 98.664 6.68858C98.5832 6.59873 98.5077 6.4989 98.4377 6.40906C98.3622 6.31921 98.2814 6.22936 98.1951 6.13952C98.1251 6.04967 98.0388 5.9748 97.9526 5.88495C97.8718 5.80509 97.7855 5.72522 97.7155 5.65035C97.6292 5.57049 97.543 5.5056 97.4622 5.42573C97.3652 5.34587 97.2682 5.271 97.1819 5.19113C97.0741 5.12624 96.9879 5.04638 96.8801 4.9765C96.7993 4.91161 96.6915 4.83175 96.5945 4.76686C96.4813 4.70197 96.3897 4.64207 96.2765 4.57718C96.1849 4.51229 96.0717 4.45239 95.9639 4.3875C95.8561 4.3326 95.7483 4.27769 95.6405 4.21779C95.5651 4.18784 95.495 4.14292 95.425 4.10798" fill="white"/>
<path fill-rule="evenodd" clip-rule="evenodd" d="M72.7086 39.5725L72.7486 39.5831C72.7314 39.5831 72.7086 39.5725 72.7086 39.5725Z" fill="white"/>
<path fill-rule="evenodd" clip-rule="evenodd" d="M61.0841 28.8075L61.0727 28.7759C61.0727 28.7864 61.0841 28.7969 61.0841 28.8075Z" fill="white"/>
<mask id="mask1_8_2" style="mask-type:luminance" maskUnits="userSpaceOnUse" x="0" y="0" width="89" height="82">
<path d="M0 0H88.9899V81.8905H0V0Z" fill="white"/>
</mask>
<g mask="url(#mask1_8_2)">
<path fill-rule="evenodd" clip-rule="evenodd" d="M85.1528 78.8008C84.5007 79.3898 83.4605 79.3898 82.7976 78.7908C82.1617 78.1968 82.1617 77.2135 82.7976 76.6245C83.4498 76.0206 84.5007 76.0206 85.1528 76.6245C85.7995 77.2235 85.7995 78.1968 85.1528 78.8008ZM86.7912 73.4499L59.9897 49.5556L55.5057 45.233L52.2505 42.1083L51.9217 42.3629L44.9532 36.1435C42.5819 33.2834 42.1561 31.0621 42.8082 28.806C42.8567 28.3967 42.7489 27.9724 42.4471 27.613L36.7344 22.322L36.7451 22.3071L33.0534 18.9029H33.0426L12.6545 0.0100327L11.4041 1.14809L30.197 19.2073L30.2455 19.2622C30.9192 19.8962 31.0539 20.7797 30.5581 21.2139L30.5365 21.2239C30.0407 21.6482 29.076 21.4835 28.4131 20.8445C28.3916 20.8246 28.3754 20.7996 28.3538 20.7797L8.88188 3.50408L7.64232 4.65712L26.2897 22.6864C26.3166 22.7114 26.3382 22.7213 26.349 22.7463C27.0496 23.3702 27.2436 24.2537 26.7747 24.7229C26.2573 25.1572 25.3142 24.9875 24.6405 24.3436C24.6136 24.3186 24.6028 24.2987 24.5812 24.2737L5.13086 7.02309L5.09852 6.99813L3.86434 8.15117L22.5171 26.1854C22.544 26.2054 22.5548 26.2154 22.5764 26.2404C23.277 26.8643 23.4602 27.7478 23.0021 28.217L22.986 28.227C22.5171 28.6862 21.5632 28.5614 20.8787 27.9375L20.8194 27.8826L1.32054 10.4972L0.0809784 11.6452L22.7596 32.6395L24.1716 33.9572V33.9422L29.8952 39.2382C30.2725 39.5177 30.7306 39.6275 31.1887 39.5726L31.1509 39.5826C33.1127 39.0935 38.0709 39.6076 39.1057 41.5692L51.9379 53.9232L53.6948 55.6053L55.5057 57.3374L58.7824 60.497L79.3861 80.3083C80.4479 81.3016 81.8599 81.7708 83.2557 81.7358C84.5384 81.6909 85.8157 81.2217 86.7912 80.3083C87.8152 79.3699 88.3218 78.132 88.3218 76.8891C88.3218 75.6412 87.8152 74.3983 86.7912 73.4499Z" fill="white"/>
</g>
</svg>
